<mxfile host="app.diagrams.net" agent="Mozilla/5.0 (Windows NT 10.0; Win64; x64) AppleWebKit/537.36 (KHTML, like Gecko) Chrome/139.0.0.0 Safari/537.36" version="28.1.1">
  <diagram name="페이지-1" id="-lG8U1elhh2lPWjS3X7J">
    <mxGraphModel dx="1959" dy="928" grid="1" gridSize="10" guides="1" tooltips="1" connect="1" arrows="1" fold="1" page="1" pageScale="1" pageWidth="827" pageHeight="1169" math="0" shadow="0">
      <root>
        <mxCell id="0" />
        <mxCell id="1" parent="0" />
        <mxCell id="ju6Y_BsM1qZ0WX_kS476-1" value="users" style="rounded=0;whiteSpace=wrap;html=1;" parent="1" vertex="1">
          <mxGeometry x="1034" y="426" width="120" height="60" as="geometry" />
        </mxCell>
        <mxCell id="ju6Y_BsM1qZ0WX_kS476-2" value="posts" style="rounded=0;whiteSpace=wrap;html=1;" parent="1" vertex="1">
          <mxGeometry x="1040" y="774" width="120" height="60" as="geometry" />
        </mxCell>
        <mxCell id="ju6Y_BsM1qZ0WX_kS476-3" value="categories" style="rounded=0;whiteSpace=wrap;html=1;" parent="1" vertex="1">
          <mxGeometry x="1059.5" y="1160" width="120" height="60" as="geometry" />
        </mxCell>
        <mxCell id="ju6Y_BsM1qZ0WX_kS476-4" value="followers" style="rounded=0;whiteSpace=wrap;html=1;" parent="1" vertex="1">
          <mxGeometry x="1052" y="2627" width="120" height="60" as="geometry" />
        </mxCell>
        <mxCell id="ju6Y_BsM1qZ0WX_kS476-5" value="reports" style="rounded=0;whiteSpace=wrap;html=1;" parent="1" vertex="1">
          <mxGeometry x="1048" y="2314" width="120" height="60" as="geometry" />
        </mxCell>
        <mxCell id="ju6Y_BsM1qZ0WX_kS476-6" value="likes" style="rounded=0;whiteSpace=wrap;html=1;" parent="1" vertex="1">
          <mxGeometry x="1072.5" y="2058" width="120" height="60" as="geometry" />
        </mxCell>
        <mxCell id="ju6Y_BsM1qZ0WX_kS476-7" value="hashtags" style="rounded=0;whiteSpace=wrap;html=1;" parent="1" vertex="1">
          <mxGeometry x="1059.5" y="1722" width="120" height="60" as="geometry" />
        </mxCell>
        <mxCell id="ju6Y_BsM1qZ0WX_kS476-8" value="views" style="rounded=0;whiteSpace=wrap;html=1;" parent="1" vertex="1">
          <mxGeometry x="1064.5" y="1507" width="120" height="60" as="geometry" />
        </mxCell>
        <mxCell id="ju6Y_BsM1qZ0WX_kS476-9" value="email" style="ellipse;whiteSpace=wrap;html=1;" parent="1" vertex="1">
          <mxGeometry x="1266" y="521" width="120" height="80" as="geometry" />
        </mxCell>
        <mxCell id="ju6Y_BsM1qZ0WX_kS476-10" value="password" style="ellipse;whiteSpace=wrap;html=1;" parent="1" vertex="1">
          <mxGeometry x="952.5" y="521" width="120" height="80" as="geometry" />
        </mxCell>
        <mxCell id="ju6Y_BsM1qZ0WX_kS476-11" value="name" style="ellipse;whiteSpace=wrap;html=1;" parent="1" vertex="1">
          <mxGeometry x="801" y="521" width="120" height="80" as="geometry" />
        </mxCell>
        <mxCell id="ju6Y_BsM1qZ0WX_kS476-12" value="age" style="ellipse;whiteSpace=wrap;html=1;" parent="1" vertex="1">
          <mxGeometry x="1105" y="521" width="120" height="80" as="geometry" />
        </mxCell>
        <mxCell id="ju6Y_BsM1qZ0WX_kS476-13" value="id" style="ellipse;whiteSpace=wrap;html=1;align=center;fontStyle=4;" parent="1" vertex="1">
          <mxGeometry x="1044" y="320" width="100" height="72" as="geometry" />
        </mxCell>
        <mxCell id="ju6Y_BsM1qZ0WX_kS476-14" value="" style="endArrow=none;html=1;rounded=0;fontSize=12;startSize=8;endSize=8;curved=1;exitX=0.5;exitY=1;exitDx=0;exitDy=0;entryX=0.5;entryY=0;entryDx=0;entryDy=0;" parent="1" source="ju6Y_BsM1qZ0WX_kS476-13" target="ju6Y_BsM1qZ0WX_kS476-1" edge="1">
          <mxGeometry relative="1" as="geometry">
            <mxPoint x="964" y="677" as="sourcePoint" />
            <mxPoint x="1124" y="677" as="targetPoint" />
          </mxGeometry>
        </mxCell>
        <mxCell id="ju6Y_BsM1qZ0WX_kS476-15" value="" style="endArrow=none;html=1;rounded=0;fontSize=12;startSize=8;endSize=8;curved=1;exitX=0.5;exitY=0;exitDx=0;exitDy=0;entryX=0.25;entryY=1;entryDx=0;entryDy=0;" parent="1" source="ju6Y_BsM1qZ0WX_kS476-10" target="ju6Y_BsM1qZ0WX_kS476-1" edge="1">
          <mxGeometry relative="1" as="geometry">
            <mxPoint x="946" y="662" as="sourcePoint" />
            <mxPoint x="989" y="632" as="targetPoint" />
          </mxGeometry>
        </mxCell>
        <mxCell id="ju6Y_BsM1qZ0WX_kS476-16" value="" style="endArrow=none;html=1;rounded=0;fontSize=12;startSize=8;endSize=8;curved=1;exitX=0.5;exitY=0;exitDx=0;exitDy=0;entryX=0.75;entryY=1;entryDx=0;entryDy=0;" parent="1" source="ju6Y_BsM1qZ0WX_kS476-12" target="ju6Y_BsM1qZ0WX_kS476-1" edge="1">
          <mxGeometry relative="1" as="geometry">
            <mxPoint x="1034" y="714" as="sourcePoint" />
            <mxPoint x="1044" y="662" as="targetPoint" />
          </mxGeometry>
        </mxCell>
        <mxCell id="ju6Y_BsM1qZ0WX_kS476-17" value="" style="endArrow=none;html=1;rounded=0;fontSize=12;startSize=8;endSize=8;curved=1;exitX=0;exitY=0;exitDx=0;exitDy=0;entryX=1;entryY=1;entryDx=0;entryDy=0;" parent="1" source="ju6Y_BsM1qZ0WX_kS476-9" target="ju6Y_BsM1qZ0WX_kS476-1" edge="1">
          <mxGeometry relative="1" as="geometry">
            <mxPoint x="1147" y="694" as="sourcePoint" />
            <mxPoint x="1096" y="662" as="targetPoint" />
          </mxGeometry>
        </mxCell>
        <mxCell id="ju6Y_BsM1qZ0WX_kS476-18" value="" style="endArrow=none;html=1;rounded=0;fontSize=12;startSize=8;endSize=8;curved=1;exitX=1;exitY=0;exitDx=0;exitDy=0;entryX=0;entryY=1;entryDx=0;entryDy=0;" parent="1" source="ju6Y_BsM1qZ0WX_kS476-11" target="ju6Y_BsM1qZ0WX_kS476-1" edge="1">
          <mxGeometry relative="1" as="geometry">
            <mxPoint x="1115" y="572" as="sourcePoint" />
            <mxPoint x="1012" y="498" as="targetPoint" />
          </mxGeometry>
        </mxCell>
        <mxCell id="ju6Y_BsM1qZ0WX_kS476-19" value="users" style="shape=table;startSize=30;container=1;collapsible=1;childLayout=tableLayout;fixedRows=1;rowLines=0;fontStyle=1;align=center;resizeLast=1;html=1;" parent="1" vertex="1">
          <mxGeometry x="310" y="1691" width="180" height="180" as="geometry" />
        </mxCell>
        <mxCell id="ju6Y_BsM1qZ0WX_kS476-20" value="" style="shape=tableRow;horizontal=0;startSize=0;swimlaneHead=0;swimlaneBody=0;fillColor=none;collapsible=0;dropTarget=0;points=[[0,0.5],[1,0.5]];portConstraint=eastwest;top=0;left=0;right=0;bottom=1;" parent="ju6Y_BsM1qZ0WX_kS476-19" vertex="1">
          <mxGeometry y="30" width="180" height="30" as="geometry" />
        </mxCell>
        <mxCell id="ju6Y_BsM1qZ0WX_kS476-21" value="PK" style="shape=partialRectangle;connectable=0;fillColor=none;top=0;left=0;bottom=0;right=0;fontStyle=1;overflow=hidden;whiteSpace=wrap;html=1;" parent="ju6Y_BsM1qZ0WX_kS476-20" vertex="1">
          <mxGeometry width="30" height="30" as="geometry">
            <mxRectangle width="30" height="30" as="alternateBounds" />
          </mxGeometry>
        </mxCell>
        <mxCell id="ju6Y_BsM1qZ0WX_kS476-22" value="id" style="shape=partialRectangle;connectable=0;fillColor=none;top=0;left=0;bottom=0;right=0;align=left;spacingLeft=6;fontStyle=5;overflow=hidden;whiteSpace=wrap;html=1;" parent="ju6Y_BsM1qZ0WX_kS476-20" vertex="1">
          <mxGeometry x="30" width="150" height="30" as="geometry">
            <mxRectangle width="150" height="30" as="alternateBounds" />
          </mxGeometry>
        </mxCell>
        <mxCell id="ju6Y_BsM1qZ0WX_kS476-23" value="" style="shape=tableRow;horizontal=0;startSize=0;swimlaneHead=0;swimlaneBody=0;fillColor=none;collapsible=0;dropTarget=0;points=[[0,0.5],[1,0.5]];portConstraint=eastwest;top=0;left=0;right=0;bottom=0;" parent="ju6Y_BsM1qZ0WX_kS476-19" vertex="1">
          <mxGeometry y="60" width="180" height="30" as="geometry" />
        </mxCell>
        <mxCell id="ju6Y_BsM1qZ0WX_kS476-24" value="" style="shape=partialRectangle;connectable=0;fillColor=none;top=0;left=0;bottom=0;right=0;editable=1;overflow=hidden;whiteSpace=wrap;html=1;" parent="ju6Y_BsM1qZ0WX_kS476-23" vertex="1">
          <mxGeometry width="30" height="30" as="geometry">
            <mxRectangle width="30" height="30" as="alternateBounds" />
          </mxGeometry>
        </mxCell>
        <mxCell id="ju6Y_BsM1qZ0WX_kS476-25" value="name" style="shape=partialRectangle;connectable=0;fillColor=none;top=0;left=0;bottom=0;right=0;align=left;spacingLeft=6;overflow=hidden;whiteSpace=wrap;html=1;" parent="ju6Y_BsM1qZ0WX_kS476-23" vertex="1">
          <mxGeometry x="30" width="150" height="30" as="geometry">
            <mxRectangle width="150" height="30" as="alternateBounds" />
          </mxGeometry>
        </mxCell>
        <mxCell id="ju6Y_BsM1qZ0WX_kS476-26" value="" style="shape=tableRow;horizontal=0;startSize=0;swimlaneHead=0;swimlaneBody=0;fillColor=none;collapsible=0;dropTarget=0;points=[[0,0.5],[1,0.5]];portConstraint=eastwest;top=0;left=0;right=0;bottom=0;" parent="ju6Y_BsM1qZ0WX_kS476-19" vertex="1">
          <mxGeometry y="90" width="180" height="30" as="geometry" />
        </mxCell>
        <mxCell id="ju6Y_BsM1qZ0WX_kS476-27" value="" style="shape=partialRectangle;connectable=0;fillColor=none;top=0;left=0;bottom=0;right=0;editable=1;overflow=hidden;whiteSpace=wrap;html=1;" parent="ju6Y_BsM1qZ0WX_kS476-26" vertex="1">
          <mxGeometry width="30" height="30" as="geometry">
            <mxRectangle width="30" height="30" as="alternateBounds" />
          </mxGeometry>
        </mxCell>
        <mxCell id="ju6Y_BsM1qZ0WX_kS476-28" value="email" style="shape=partialRectangle;connectable=0;fillColor=none;top=0;left=0;bottom=0;right=0;align=left;spacingLeft=6;overflow=hidden;whiteSpace=wrap;html=1;" parent="ju6Y_BsM1qZ0WX_kS476-26" vertex="1">
          <mxGeometry x="30" width="150" height="30" as="geometry">
            <mxRectangle width="150" height="30" as="alternateBounds" />
          </mxGeometry>
        </mxCell>
        <mxCell id="ju6Y_BsM1qZ0WX_kS476-29" value="" style="shape=tableRow;horizontal=0;startSize=0;swimlaneHead=0;swimlaneBody=0;fillColor=none;collapsible=0;dropTarget=0;points=[[0,0.5],[1,0.5]];portConstraint=eastwest;top=0;left=0;right=0;bottom=0;" parent="ju6Y_BsM1qZ0WX_kS476-19" vertex="1">
          <mxGeometry y="120" width="180" height="30" as="geometry" />
        </mxCell>
        <mxCell id="ju6Y_BsM1qZ0WX_kS476-30" value="" style="shape=partialRectangle;connectable=0;fillColor=none;top=0;left=0;bottom=0;right=0;editable=1;overflow=hidden;whiteSpace=wrap;html=1;" parent="ju6Y_BsM1qZ0WX_kS476-29" vertex="1">
          <mxGeometry width="30" height="30" as="geometry">
            <mxRectangle width="30" height="30" as="alternateBounds" />
          </mxGeometry>
        </mxCell>
        <mxCell id="ju6Y_BsM1qZ0WX_kS476-31" value="age" style="shape=partialRectangle;connectable=0;fillColor=none;top=0;left=0;bottom=0;right=0;align=left;spacingLeft=6;overflow=hidden;whiteSpace=wrap;html=1;" parent="ju6Y_BsM1qZ0WX_kS476-29" vertex="1">
          <mxGeometry x="30" width="150" height="30" as="geometry">
            <mxRectangle width="150" height="30" as="alternateBounds" />
          </mxGeometry>
        </mxCell>
        <mxCell id="ju6Y_BsM1qZ0WX_kS476-32" value="" style="shape=tableRow;horizontal=0;startSize=0;swimlaneHead=0;swimlaneBody=0;fillColor=none;collapsible=0;dropTarget=0;points=[[0,0.5],[1,0.5]];portConstraint=eastwest;top=0;left=0;right=0;bottom=0;" parent="ju6Y_BsM1qZ0WX_kS476-19" vertex="1">
          <mxGeometry y="150" width="180" height="30" as="geometry" />
        </mxCell>
        <mxCell id="ju6Y_BsM1qZ0WX_kS476-33" value="" style="shape=partialRectangle;connectable=0;fillColor=none;top=0;left=0;bottom=0;right=0;editable=1;overflow=hidden;whiteSpace=wrap;html=1;" parent="ju6Y_BsM1qZ0WX_kS476-32" vertex="1">
          <mxGeometry width="30" height="30" as="geometry">
            <mxRectangle width="30" height="30" as="alternateBounds" />
          </mxGeometry>
        </mxCell>
        <mxCell id="ju6Y_BsM1qZ0WX_kS476-34" value="password" style="shape=partialRectangle;connectable=0;fillColor=none;top=0;left=0;bottom=0;right=0;align=left;spacingLeft=6;overflow=hidden;whiteSpace=wrap;html=1;" parent="ju6Y_BsM1qZ0WX_kS476-32" vertex="1">
          <mxGeometry x="30" width="150" height="30" as="geometry">
            <mxRectangle width="150" height="30" as="alternateBounds" />
          </mxGeometry>
        </mxCell>
        <mxCell id="ju6Y_BsM1qZ0WX_kS476-35" value="categories_id(FK)" style="ellipse;whiteSpace=wrap;html=1;" parent="1" vertex="1">
          <mxGeometry x="834" y="764" width="120" height="80" as="geometry" />
        </mxCell>
        <mxCell id="ju6Y_BsM1qZ0WX_kS476-36" value="users_id(FK)" style="ellipse;whiteSpace=wrap;html=1;" parent="1" vertex="1">
          <mxGeometry x="1255" y="764" width="120" height="80" as="geometry" />
        </mxCell>
        <mxCell id="ju6Y_BsM1qZ0WX_kS476-37" value="view" style="ellipse;whiteSpace=wrap;html=1;" parent="1" vertex="1">
          <mxGeometry x="1282" y="916" width="120" height="80" as="geometry" />
        </mxCell>
        <mxCell id="ju6Y_BsM1qZ0WX_kS476-38" value="createat" style="ellipse;whiteSpace=wrap;html=1;" parent="1" vertex="1">
          <mxGeometry x="1117" y="920" width="120" height="80" as="geometry" />
        </mxCell>
        <mxCell id="ju6Y_BsM1qZ0WX_kS476-39" value="content" style="ellipse;whiteSpace=wrap;html=1;" parent="1" vertex="1">
          <mxGeometry x="967" y="924" width="120" height="80" as="geometry" />
        </mxCell>
        <mxCell id="ju6Y_BsM1qZ0WX_kS476-40" value="title" style="ellipse;whiteSpace=wrap;html=1;" parent="1" vertex="1">
          <mxGeometry x="799" y="916" width="120" height="80" as="geometry" />
        </mxCell>
        <mxCell id="ju6Y_BsM1qZ0WX_kS476-41" value="id" style="ellipse;whiteSpace=wrap;html=1;align=center;fontStyle=4;" parent="1" vertex="1">
          <mxGeometry x="1132" y="633" width="117" height="80" as="geometry" />
        </mxCell>
        <mxCell id="ju6Y_BsM1qZ0WX_kS476-42" value="pk" style="ellipse;whiteSpace=wrap;html=1;align=center;fontStyle=4;" parent="1" vertex="1">
          <mxGeometry x="954" y="630" width="117" height="80" as="geometry" />
        </mxCell>
        <mxCell id="ju6Y_BsM1qZ0WX_kS476-43" value="" style="endArrow=none;html=1;rounded=0;fontSize=12;startSize=8;endSize=8;curved=1;exitX=0.25;exitY=0;exitDx=0;exitDy=0;entryX=0.567;entryY=0.994;entryDx=0;entryDy=0;entryPerimeter=0;" parent="1" source="ju6Y_BsM1qZ0WX_kS476-2" target="ju6Y_BsM1qZ0WX_kS476-42" edge="1">
          <mxGeometry relative="1" as="geometry">
            <mxPoint x="892" y="774" as="sourcePoint" />
            <mxPoint x="1067" y="739" as="targetPoint" />
          </mxGeometry>
        </mxCell>
        <mxCell id="ju6Y_BsM1qZ0WX_kS476-44" value="" style="endArrow=none;html=1;rounded=0;fontSize=12;startSize=8;endSize=8;curved=1;exitX=0.75;exitY=0;exitDx=0;exitDy=0;entryX=0.389;entryY=0.998;entryDx=0;entryDy=0;entryPerimeter=0;" parent="1" source="ju6Y_BsM1qZ0WX_kS476-2" target="ju6Y_BsM1qZ0WX_kS476-41" edge="1">
          <mxGeometry relative="1" as="geometry">
            <mxPoint x="1080" y="784" as="sourcePoint" />
            <mxPoint x="957" y="729" as="targetPoint" />
          </mxGeometry>
        </mxCell>
        <mxCell id="ju6Y_BsM1qZ0WX_kS476-45" value="" style="endArrow=none;html=1;rounded=0;fontSize=12;startSize=8;endSize=8;curved=1;exitX=0;exitY=0.5;exitDx=0;exitDy=0;entryX=1;entryY=0.5;entryDx=0;entryDy=0;" parent="1" source="ju6Y_BsM1qZ0WX_kS476-2" target="ju6Y_BsM1qZ0WX_kS476-35" edge="1">
          <mxGeometry relative="1" as="geometry">
            <mxPoint x="1080" y="784" as="sourcePoint" />
            <mxPoint x="1030" y="720" as="targetPoint" />
          </mxGeometry>
        </mxCell>
        <mxCell id="ju6Y_BsM1qZ0WX_kS476-46" value="" style="endArrow=none;html=1;rounded=0;fontSize=12;startSize=8;endSize=8;curved=1;exitX=0;exitY=0.5;exitDx=0;exitDy=0;entryX=1;entryY=0.5;entryDx=0;entryDy=0;" parent="1" source="ju6Y_BsM1qZ0WX_kS476-36" target="ju6Y_BsM1qZ0WX_kS476-2" edge="1">
          <mxGeometry relative="1" as="geometry">
            <mxPoint x="1050" y="814" as="sourcePoint" />
            <mxPoint x="964" y="819" as="targetPoint" />
          </mxGeometry>
        </mxCell>
        <mxCell id="ju6Y_BsM1qZ0WX_kS476-47" value="" style="endArrow=none;html=1;rounded=0;fontSize=12;startSize=8;endSize=8;curved=1;exitX=0;exitY=0;exitDx=0;exitDy=0;entryX=1;entryY=1;entryDx=0;entryDy=0;" parent="1" source="ju6Y_BsM1qZ0WX_kS476-37" target="ju6Y_BsM1qZ0WX_kS476-2" edge="1">
          <mxGeometry relative="1" as="geometry">
            <mxPoint x="1243" y="869" as="sourcePoint" />
            <mxPoint x="1148" y="869" as="targetPoint" />
          </mxGeometry>
        </mxCell>
        <mxCell id="ju6Y_BsM1qZ0WX_kS476-48" value="" style="endArrow=none;html=1;rounded=0;fontSize=12;startSize=8;endSize=8;curved=1;exitX=0.5;exitY=0;exitDx=0;exitDy=0;entryX=0.75;entryY=1;entryDx=0;entryDy=0;" parent="1" source="ju6Y_BsM1qZ0WX_kS476-38" target="ju6Y_BsM1qZ0WX_kS476-2" edge="1">
          <mxGeometry relative="1" as="geometry">
            <mxPoint x="1226" y="931" as="sourcePoint" />
            <mxPoint x="1100" y="838" as="targetPoint" />
          </mxGeometry>
        </mxCell>
        <mxCell id="ju6Y_BsM1qZ0WX_kS476-49" value="" style="endArrow=none;html=1;rounded=0;fontSize=12;startSize=8;endSize=8;curved=1;exitX=0.5;exitY=0;exitDx=0;exitDy=0;entryX=0.25;entryY=1;entryDx=0;entryDy=0;" parent="1" source="ju6Y_BsM1qZ0WX_kS476-39" target="ju6Y_BsM1qZ0WX_kS476-2" edge="1">
          <mxGeometry relative="1" as="geometry">
            <mxPoint x="1058" y="943" as="sourcePoint" />
            <mxPoint x="1064" y="863" as="targetPoint" />
          </mxGeometry>
        </mxCell>
        <mxCell id="ju6Y_BsM1qZ0WX_kS476-50" value="" style="endArrow=none;html=1;rounded=0;fontSize=12;startSize=8;endSize=8;curved=1;entryX=0;entryY=1;entryDx=0;entryDy=0;" parent="1" source="ju6Y_BsM1qZ0WX_kS476-40" target="ju6Y_BsM1qZ0WX_kS476-2" edge="1">
          <mxGeometry relative="1" as="geometry">
            <mxPoint x="922" y="936" as="sourcePoint" />
            <mxPoint x="1004" y="837" as="targetPoint" />
          </mxGeometry>
        </mxCell>
        <mxCell id="ju6Y_BsM1qZ0WX_kS476-51" value="posts" style="shape=table;startSize=30;container=1;collapsible=1;childLayout=tableLayout;fixedRows=1;rowLines=0;fontStyle=1;align=center;resizeLast=1;html=1;" parent="1" vertex="1">
          <mxGeometry x="110" y="1601" width="180" height="270" as="geometry" />
        </mxCell>
        <mxCell id="ju6Y_BsM1qZ0WX_kS476-52" value="" style="shape=tableRow;horizontal=0;startSize=0;swimlaneHead=0;swimlaneBody=0;fillColor=none;collapsible=0;dropTarget=0;points=[[0,0.5],[1,0.5]];portConstraint=eastwest;top=0;left=0;right=0;bottom=1;" parent="ju6Y_BsM1qZ0WX_kS476-51" vertex="1">
          <mxGeometry y="30" width="180" height="30" as="geometry" />
        </mxCell>
        <mxCell id="ju6Y_BsM1qZ0WX_kS476-53" value="PK" style="shape=partialRectangle;connectable=0;fillColor=none;top=0;left=0;bottom=0;right=0;fontStyle=1;overflow=hidden;whiteSpace=wrap;html=1;" parent="ju6Y_BsM1qZ0WX_kS476-52" vertex="1">
          <mxGeometry width="30" height="30" as="geometry">
            <mxRectangle width="30" height="30" as="alternateBounds" />
          </mxGeometry>
        </mxCell>
        <mxCell id="ju6Y_BsM1qZ0WX_kS476-54" value="id" style="shape=partialRectangle;connectable=0;fillColor=none;top=0;left=0;bottom=0;right=0;align=left;spacingLeft=6;fontStyle=5;overflow=hidden;whiteSpace=wrap;html=1;" parent="ju6Y_BsM1qZ0WX_kS476-52" vertex="1">
          <mxGeometry x="30" width="150" height="30" as="geometry">
            <mxRectangle width="150" height="30" as="alternateBounds" />
          </mxGeometry>
        </mxCell>
        <mxCell id="ju6Y_BsM1qZ0WX_kS476-55" value="" style="shape=tableRow;horizontal=0;startSize=0;swimlaneHead=0;swimlaneBody=0;fillColor=none;collapsible=0;dropTarget=0;points=[[0,0.5],[1,0.5]];portConstraint=eastwest;top=0;left=0;right=0;bottom=1;" parent="ju6Y_BsM1qZ0WX_kS476-51" vertex="1">
          <mxGeometry y="60" width="180" height="30" as="geometry" />
        </mxCell>
        <mxCell id="ju6Y_BsM1qZ0WX_kS476-56" value="FK" style="shape=partialRectangle;connectable=0;fillColor=none;top=0;left=0;bottom=0;right=0;fontStyle=1;overflow=hidden;whiteSpace=wrap;html=1;" parent="ju6Y_BsM1qZ0WX_kS476-55" vertex="1">
          <mxGeometry width="30" height="30" as="geometry">
            <mxRectangle width="30" height="30" as="alternateBounds" />
          </mxGeometry>
        </mxCell>
        <mxCell id="ju6Y_BsM1qZ0WX_kS476-57" value="&lt;span style=&quot;font-weight: 400;&quot;&gt;categories_id&lt;/span&gt;" style="shape=partialRectangle;connectable=0;fillColor=none;top=0;left=0;bottom=0;right=0;align=left;spacingLeft=6;fontStyle=5;overflow=hidden;whiteSpace=wrap;html=1;" parent="ju6Y_BsM1qZ0WX_kS476-55" vertex="1">
          <mxGeometry x="30" width="150" height="30" as="geometry">
            <mxRectangle width="150" height="30" as="alternateBounds" />
          </mxGeometry>
        </mxCell>
        <mxCell id="ju6Y_BsM1qZ0WX_kS476-58" value="" style="shape=tableRow;horizontal=0;startSize=0;swimlaneHead=0;swimlaneBody=0;fillColor=none;collapsible=0;dropTarget=0;points=[[0,0.5],[1,0.5]];portConstraint=eastwest;top=0;left=0;right=0;bottom=1;" parent="ju6Y_BsM1qZ0WX_kS476-51" vertex="1">
          <mxGeometry y="90" width="180" height="30" as="geometry" />
        </mxCell>
        <mxCell id="ju6Y_BsM1qZ0WX_kS476-59" value="FK" style="shape=partialRectangle;connectable=0;fillColor=none;top=0;left=0;bottom=0;right=0;fontStyle=1;overflow=hidden;whiteSpace=wrap;html=1;" parent="ju6Y_BsM1qZ0WX_kS476-58" vertex="1">
          <mxGeometry width="30" height="30" as="geometry">
            <mxRectangle width="30" height="30" as="alternateBounds" />
          </mxGeometry>
        </mxCell>
        <mxCell id="ju6Y_BsM1qZ0WX_kS476-60" value="&lt;span style=&quot;font-weight: 400;&quot;&gt;user_id&lt;/span&gt;" style="shape=partialRectangle;connectable=0;fillColor=none;top=0;left=0;bottom=0;right=0;align=left;spacingLeft=6;fontStyle=5;overflow=hidden;whiteSpace=wrap;html=1;" parent="ju6Y_BsM1qZ0WX_kS476-58" vertex="1">
          <mxGeometry x="30" width="150" height="30" as="geometry">
            <mxRectangle width="150" height="30" as="alternateBounds" />
          </mxGeometry>
        </mxCell>
        <mxCell id="ju6Y_BsM1qZ0WX_kS476-61" value="" style="shape=tableRow;horizontal=0;startSize=0;swimlaneHead=0;swimlaneBody=0;fillColor=none;collapsible=0;dropTarget=0;points=[[0,0.5],[1,0.5]];portConstraint=eastwest;top=0;left=0;right=0;bottom=0;" parent="ju6Y_BsM1qZ0WX_kS476-51" vertex="1">
          <mxGeometry y="120" width="180" height="30" as="geometry" />
        </mxCell>
        <mxCell id="ju6Y_BsM1qZ0WX_kS476-62" value="" style="shape=partialRectangle;connectable=0;fillColor=none;top=0;left=0;bottom=0;right=0;editable=1;overflow=hidden;whiteSpace=wrap;html=1;" parent="ju6Y_BsM1qZ0WX_kS476-61" vertex="1">
          <mxGeometry width="30" height="30" as="geometry">
            <mxRectangle width="30" height="30" as="alternateBounds" />
          </mxGeometry>
        </mxCell>
        <mxCell id="ju6Y_BsM1qZ0WX_kS476-63" value="title" style="shape=partialRectangle;connectable=0;fillColor=none;top=0;left=0;bottom=0;right=0;align=left;spacingLeft=6;overflow=hidden;whiteSpace=wrap;html=1;" parent="ju6Y_BsM1qZ0WX_kS476-61" vertex="1">
          <mxGeometry x="30" width="150" height="30" as="geometry">
            <mxRectangle width="150" height="30" as="alternateBounds" />
          </mxGeometry>
        </mxCell>
        <mxCell id="ju6Y_BsM1qZ0WX_kS476-64" value="" style="shape=tableRow;horizontal=0;startSize=0;swimlaneHead=0;swimlaneBody=0;fillColor=none;collapsible=0;dropTarget=0;points=[[0,0.5],[1,0.5]];portConstraint=eastwest;top=0;left=0;right=0;bottom=0;" parent="ju6Y_BsM1qZ0WX_kS476-51" vertex="1">
          <mxGeometry y="150" width="180" height="30" as="geometry" />
        </mxCell>
        <mxCell id="ju6Y_BsM1qZ0WX_kS476-65" value="" style="shape=partialRectangle;connectable=0;fillColor=none;top=0;left=0;bottom=0;right=0;editable=1;overflow=hidden;whiteSpace=wrap;html=1;" parent="ju6Y_BsM1qZ0WX_kS476-64" vertex="1">
          <mxGeometry width="30" height="30" as="geometry">
            <mxRectangle width="30" height="30" as="alternateBounds" />
          </mxGeometry>
        </mxCell>
        <mxCell id="ju6Y_BsM1qZ0WX_kS476-66" value="content" style="shape=partialRectangle;connectable=0;fillColor=none;top=0;left=0;bottom=0;right=0;align=left;spacingLeft=6;overflow=hidden;whiteSpace=wrap;html=1;" parent="ju6Y_BsM1qZ0WX_kS476-64" vertex="1">
          <mxGeometry x="30" width="150" height="30" as="geometry">
            <mxRectangle width="150" height="30" as="alternateBounds" />
          </mxGeometry>
        </mxCell>
        <mxCell id="ju6Y_BsM1qZ0WX_kS476-67" value="" style="shape=tableRow;horizontal=0;startSize=0;swimlaneHead=0;swimlaneBody=0;fillColor=none;collapsible=0;dropTarget=0;points=[[0,0.5],[1,0.5]];portConstraint=eastwest;top=0;left=0;right=0;bottom=0;" parent="ju6Y_BsM1qZ0WX_kS476-51" vertex="1">
          <mxGeometry y="180" width="180" height="30" as="geometry" />
        </mxCell>
        <mxCell id="ju6Y_BsM1qZ0WX_kS476-68" value="" style="shape=partialRectangle;connectable=0;fillColor=none;top=0;left=0;bottom=0;right=0;editable=1;overflow=hidden;whiteSpace=wrap;html=1;" parent="ju6Y_BsM1qZ0WX_kS476-67" vertex="1">
          <mxGeometry width="30" height="30" as="geometry">
            <mxRectangle width="30" height="30" as="alternateBounds" />
          </mxGeometry>
        </mxCell>
        <mxCell id="ju6Y_BsM1qZ0WX_kS476-69" value="category" style="shape=partialRectangle;connectable=0;fillColor=none;top=0;left=0;bottom=0;right=0;align=left;spacingLeft=6;overflow=hidden;whiteSpace=wrap;html=1;" parent="ju6Y_BsM1qZ0WX_kS476-67" vertex="1">
          <mxGeometry x="30" width="150" height="30" as="geometry">
            <mxRectangle width="150" height="30" as="alternateBounds" />
          </mxGeometry>
        </mxCell>
        <mxCell id="ju6Y_BsM1qZ0WX_kS476-70" value="" style="shape=tableRow;horizontal=0;startSize=0;swimlaneHead=0;swimlaneBody=0;fillColor=none;collapsible=0;dropTarget=0;points=[[0,0.5],[1,0.5]];portConstraint=eastwest;top=0;left=0;right=0;bottom=0;" parent="ju6Y_BsM1qZ0WX_kS476-51" vertex="1">
          <mxGeometry y="210" width="180" height="30" as="geometry" />
        </mxCell>
        <mxCell id="ju6Y_BsM1qZ0WX_kS476-71" value="" style="shape=partialRectangle;connectable=0;fillColor=none;top=0;left=0;bottom=0;right=0;editable=1;overflow=hidden;whiteSpace=wrap;html=1;" parent="ju6Y_BsM1qZ0WX_kS476-70" vertex="1">
          <mxGeometry width="30" height="30" as="geometry">
            <mxRectangle width="30" height="30" as="alternateBounds" />
          </mxGeometry>
        </mxCell>
        <mxCell id="ju6Y_BsM1qZ0WX_kS476-72" value="createat" style="shape=partialRectangle;connectable=0;fillColor=none;top=0;left=0;bottom=0;right=0;align=left;spacingLeft=6;overflow=hidden;whiteSpace=wrap;html=1;" parent="ju6Y_BsM1qZ0WX_kS476-70" vertex="1">
          <mxGeometry x="30" width="150" height="30" as="geometry">
            <mxRectangle width="150" height="30" as="alternateBounds" />
          </mxGeometry>
        </mxCell>
        <mxCell id="ju6Y_BsM1qZ0WX_kS476-73" value="" style="shape=tableRow;horizontal=0;startSize=0;swimlaneHead=0;swimlaneBody=0;fillColor=none;collapsible=0;dropTarget=0;points=[[0,0.5],[1,0.5]];portConstraint=eastwest;top=0;left=0;right=0;bottom=0;" parent="ju6Y_BsM1qZ0WX_kS476-51" vertex="1">
          <mxGeometry y="240" width="180" height="30" as="geometry" />
        </mxCell>
        <mxCell id="ju6Y_BsM1qZ0WX_kS476-74" value="" style="shape=partialRectangle;connectable=0;fillColor=none;top=0;left=0;bottom=0;right=0;editable=1;overflow=hidden;whiteSpace=wrap;html=1;" parent="ju6Y_BsM1qZ0WX_kS476-73" vertex="1">
          <mxGeometry width="30" height="30" as="geometry">
            <mxRectangle width="30" height="30" as="alternateBounds" />
          </mxGeometry>
        </mxCell>
        <mxCell id="ju6Y_BsM1qZ0WX_kS476-75" value="view" style="shape=partialRectangle;connectable=0;fillColor=none;top=0;left=0;bottom=0;right=0;align=left;spacingLeft=6;overflow=hidden;whiteSpace=wrap;html=1;" parent="ju6Y_BsM1qZ0WX_kS476-73" vertex="1">
          <mxGeometry x="30" width="150" height="30" as="geometry">
            <mxRectangle width="150" height="30" as="alternateBounds" />
          </mxGeometry>
        </mxCell>
        <mxCell id="ju6Y_BsM1qZ0WX_kS476-76" value="&lt;span style=&quot;text-align: left;&quot;&gt;name&lt;/span&gt;" style="ellipse;whiteSpace=wrap;html=1;" parent="1" vertex="1">
          <mxGeometry x="1059.5" y="1247" width="120" height="80" as="geometry" />
        </mxCell>
        <mxCell id="ju6Y_BsM1qZ0WX_kS476-77" value="id" style="ellipse;whiteSpace=wrap;html=1;align=center;fontStyle=4;" parent="1" vertex="1">
          <mxGeometry x="1061" y="1060" width="117" height="80" as="geometry" />
        </mxCell>
        <mxCell id="ju6Y_BsM1qZ0WX_kS476-78" value="" style="endArrow=none;html=1;rounded=0;fontSize=12;startSize=8;endSize=8;curved=1;exitX=0.5;exitY=0;exitDx=0;exitDy=0;entryX=0.5;entryY=1;entryDx=0;entryDy=0;" parent="1" source="ju6Y_BsM1qZ0WX_kS476-3" target="ju6Y_BsM1qZ0WX_kS476-77" edge="1">
          <mxGeometry relative="1" as="geometry">
            <mxPoint x="958" y="1206" as="sourcePoint" />
            <mxPoint x="1001" y="1116" as="targetPoint" />
          </mxGeometry>
        </mxCell>
        <mxCell id="ju6Y_BsM1qZ0WX_kS476-79" value="" style="endArrow=none;html=1;rounded=0;fontSize=12;startSize=8;endSize=8;curved=1;entryX=0.5;entryY=1;entryDx=0;entryDy=0;" parent="1" source="ju6Y_BsM1qZ0WX_kS476-76" target="ju6Y_BsM1qZ0WX_kS476-3" edge="1">
          <mxGeometry relative="1" as="geometry">
            <mxPoint x="1131" y="1212" as="sourcePoint" />
            <mxPoint x="1169" y="1159" as="targetPoint" />
          </mxGeometry>
        </mxCell>
        <mxCell id="ju6Y_BsM1qZ0WX_kS476-80" value="categories" style="shape=table;startSize=30;container=1;collapsible=1;childLayout=tableLayout;fixedRows=1;rowLines=0;fontStyle=1;align=center;resizeLast=1;html=1;" parent="1" vertex="1">
          <mxGeometry x="530" y="1771" width="180" height="90" as="geometry" />
        </mxCell>
        <mxCell id="ju6Y_BsM1qZ0WX_kS476-81" value="" style="shape=tableRow;horizontal=0;startSize=0;swimlaneHead=0;swimlaneBody=0;fillColor=none;collapsible=0;dropTarget=0;points=[[0,0.5],[1,0.5]];portConstraint=eastwest;top=0;left=0;right=0;bottom=1;" parent="ju6Y_BsM1qZ0WX_kS476-80" vertex="1">
          <mxGeometry y="30" width="180" height="30" as="geometry" />
        </mxCell>
        <mxCell id="ju6Y_BsM1qZ0WX_kS476-82" value="PK" style="shape=partialRectangle;connectable=0;fillColor=none;top=0;left=0;bottom=0;right=0;fontStyle=1;overflow=hidden;whiteSpace=wrap;html=1;" parent="ju6Y_BsM1qZ0WX_kS476-81" vertex="1">
          <mxGeometry width="30" height="30" as="geometry">
            <mxRectangle width="30" height="30" as="alternateBounds" />
          </mxGeometry>
        </mxCell>
        <mxCell id="ju6Y_BsM1qZ0WX_kS476-83" value="id" style="shape=partialRectangle;connectable=0;fillColor=none;top=0;left=0;bottom=0;right=0;align=left;spacingLeft=6;fontStyle=5;overflow=hidden;whiteSpace=wrap;html=1;" parent="ju6Y_BsM1qZ0WX_kS476-81" vertex="1">
          <mxGeometry x="30" width="150" height="30" as="geometry">
            <mxRectangle width="150" height="30" as="alternateBounds" />
          </mxGeometry>
        </mxCell>
        <mxCell id="ju6Y_BsM1qZ0WX_kS476-84" value="" style="shape=tableRow;horizontal=0;startSize=0;swimlaneHead=0;swimlaneBody=0;fillColor=none;collapsible=0;dropTarget=0;points=[[0,0.5],[1,0.5]];portConstraint=eastwest;top=0;left=0;right=0;bottom=0;" parent="ju6Y_BsM1qZ0WX_kS476-80" vertex="1">
          <mxGeometry y="60" width="180" height="30" as="geometry" />
        </mxCell>
        <mxCell id="ju6Y_BsM1qZ0WX_kS476-85" value="" style="shape=partialRectangle;connectable=0;fillColor=none;top=0;left=0;bottom=0;right=0;editable=1;overflow=hidden;whiteSpace=wrap;html=1;" parent="ju6Y_BsM1qZ0WX_kS476-84" vertex="1">
          <mxGeometry width="30" height="30" as="geometry">
            <mxRectangle width="30" height="30" as="alternateBounds" />
          </mxGeometry>
        </mxCell>
        <mxCell id="ju6Y_BsM1qZ0WX_kS476-86" value="name" style="shape=partialRectangle;connectable=0;fillColor=none;top=0;left=0;bottom=0;right=0;align=left;spacingLeft=6;overflow=hidden;whiteSpace=wrap;html=1;" parent="ju6Y_BsM1qZ0WX_kS476-84" vertex="1">
          <mxGeometry x="30" width="150" height="30" as="geometry">
            <mxRectangle width="150" height="30" as="alternateBounds" />
          </mxGeometry>
        </mxCell>
        <mxCell id="ju6Y_BsM1qZ0WX_kS476-87" value="users_id(FK)" style="ellipse;whiteSpace=wrap;html=1;" parent="1" vertex="1">
          <mxGeometry x="885" y="1497" width="120" height="80" as="geometry" />
        </mxCell>
        <mxCell id="ju6Y_BsM1qZ0WX_kS476-88" value="posts_id(FK)" style="ellipse;whiteSpace=wrap;html=1;" parent="1" vertex="1">
          <mxGeometry x="1227" y="1491" width="120" height="80" as="geometry" />
        </mxCell>
        <mxCell id="ju6Y_BsM1qZ0WX_kS476-89" value="" style="endArrow=none;html=1;rounded=0;fontSize=12;startSize=8;endSize=8;curved=1;entryX=0;entryY=0.5;entryDx=0;entryDy=0;exitX=0.991;exitY=0.444;exitDx=0;exitDy=0;exitPerimeter=0;" parent="1" source="ju6Y_BsM1qZ0WX_kS476-87" target="ju6Y_BsM1qZ0WX_kS476-8" edge="1">
          <mxGeometry relative="1" as="geometry">
            <mxPoint x="1132" y="1315" as="sourcePoint" />
            <mxPoint x="1132" y="1288" as="targetPoint" />
          </mxGeometry>
        </mxCell>
        <mxCell id="ju6Y_BsM1qZ0WX_kS476-90" value="" style="endArrow=none;html=1;rounded=0;fontSize=12;startSize=8;endSize=8;curved=1;exitX=1;exitY=0.5;exitDx=0;exitDy=0;" parent="1" source="ju6Y_BsM1qZ0WX_kS476-8" target="ju6Y_BsM1qZ0WX_kS476-88" edge="1">
          <mxGeometry relative="1" as="geometry">
            <mxPoint x="1195" y="1566" as="sourcePoint" />
            <mxPoint x="1257" y="1566" as="targetPoint" />
          </mxGeometry>
        </mxCell>
        <mxCell id="ju6Y_BsM1qZ0WX_kS476-91" value="id" style="ellipse;whiteSpace=wrap;html=1;align=center;fontStyle=4;" parent="1" vertex="1">
          <mxGeometry x="1067.5" y="1394" width="117" height="80" as="geometry" />
        </mxCell>
        <mxCell id="ju6Y_BsM1qZ0WX_kS476-92" value="" style="endArrow=none;html=1;rounded=0;fontSize=12;startSize=8;endSize=8;curved=1;entryX=0.5;entryY=1;entryDx=0;entryDy=0;" parent="1" source="ju6Y_BsM1qZ0WX_kS476-8" target="ju6Y_BsM1qZ0WX_kS476-91" edge="1">
          <mxGeometry relative="1" as="geometry">
            <mxPoint x="1132" y="1228" as="sourcePoint" />
            <mxPoint x="1132" y="1208" as="targetPoint" />
          </mxGeometry>
        </mxCell>
        <mxCell id="ju6Y_BsM1qZ0WX_kS476-93" value="view" style="shape=table;startSize=30;container=1;collapsible=1;childLayout=tableLayout;fixedRows=1;rowLines=0;fontStyle=1;align=center;resizeLast=1;html=1;" parent="1" vertex="1">
          <mxGeometry x="530" y="1920" width="180" height="120" as="geometry" />
        </mxCell>
        <mxCell id="ju6Y_BsM1qZ0WX_kS476-94" value="" style="shape=tableRow;horizontal=0;startSize=0;swimlaneHead=0;swimlaneBody=0;fillColor=none;collapsible=0;dropTarget=0;points=[[0,0.5],[1,0.5]];portConstraint=eastwest;top=0;left=0;right=0;bottom=1;" parent="ju6Y_BsM1qZ0WX_kS476-93" vertex="1">
          <mxGeometry y="30" width="180" height="30" as="geometry" />
        </mxCell>
        <mxCell id="ju6Y_BsM1qZ0WX_kS476-95" value="PK" style="shape=partialRectangle;connectable=0;fillColor=none;top=0;left=0;bottom=0;right=0;fontStyle=1;overflow=hidden;whiteSpace=wrap;html=1;" parent="ju6Y_BsM1qZ0WX_kS476-94" vertex="1">
          <mxGeometry width="30" height="30" as="geometry">
            <mxRectangle width="30" height="30" as="alternateBounds" />
          </mxGeometry>
        </mxCell>
        <mxCell id="ju6Y_BsM1qZ0WX_kS476-96" value="id" style="shape=partialRectangle;connectable=0;fillColor=none;top=0;left=0;bottom=0;right=0;align=left;spacingLeft=6;fontStyle=5;overflow=hidden;whiteSpace=wrap;html=1;" parent="ju6Y_BsM1qZ0WX_kS476-94" vertex="1">
          <mxGeometry x="30" width="150" height="30" as="geometry">
            <mxRectangle width="150" height="30" as="alternateBounds" />
          </mxGeometry>
        </mxCell>
        <mxCell id="ju6Y_BsM1qZ0WX_kS476-97" value="" style="shape=tableRow;horizontal=0;startSize=0;swimlaneHead=0;swimlaneBody=0;fillColor=none;collapsible=0;dropTarget=0;points=[[0,0.5],[1,0.5]];portConstraint=eastwest;top=0;left=0;right=0;bottom=1;" parent="ju6Y_BsM1qZ0WX_kS476-93" vertex="1">
          <mxGeometry y="60" width="180" height="30" as="geometry" />
        </mxCell>
        <mxCell id="ju6Y_BsM1qZ0WX_kS476-98" value="FK" style="shape=partialRectangle;connectable=0;fillColor=none;top=0;left=0;bottom=0;right=0;fontStyle=1;overflow=hidden;whiteSpace=wrap;html=1;" parent="ju6Y_BsM1qZ0WX_kS476-97" vertex="1">
          <mxGeometry width="30" height="30" as="geometry">
            <mxRectangle width="30" height="30" as="alternateBounds" />
          </mxGeometry>
        </mxCell>
        <mxCell id="ju6Y_BsM1qZ0WX_kS476-99" value="&lt;span style=&quot;font-weight: 400; text-align: center;&quot;&gt;users_id&lt;/span&gt;" style="shape=partialRectangle;connectable=0;fillColor=none;top=0;left=0;bottom=0;right=0;align=left;spacingLeft=6;fontStyle=5;overflow=hidden;whiteSpace=wrap;html=1;" parent="ju6Y_BsM1qZ0WX_kS476-97" vertex="1">
          <mxGeometry x="30" width="150" height="30" as="geometry">
            <mxRectangle width="150" height="30" as="alternateBounds" />
          </mxGeometry>
        </mxCell>
        <mxCell id="ju6Y_BsM1qZ0WX_kS476-100" value="" style="shape=tableRow;horizontal=0;startSize=0;swimlaneHead=0;swimlaneBody=0;fillColor=none;collapsible=0;dropTarget=0;points=[[0,0.5],[1,0.5]];portConstraint=eastwest;top=0;left=0;right=0;bottom=1;" parent="ju6Y_BsM1qZ0WX_kS476-93" vertex="1">
          <mxGeometry y="90" width="180" height="30" as="geometry" />
        </mxCell>
        <mxCell id="ju6Y_BsM1qZ0WX_kS476-101" value="FK" style="shape=partialRectangle;connectable=0;fillColor=none;top=0;left=0;bottom=0;right=0;fontStyle=1;overflow=hidden;whiteSpace=wrap;html=1;" parent="ju6Y_BsM1qZ0WX_kS476-100" vertex="1">
          <mxGeometry width="30" height="30" as="geometry">
            <mxRectangle width="30" height="30" as="alternateBounds" />
          </mxGeometry>
        </mxCell>
        <mxCell id="ju6Y_BsM1qZ0WX_kS476-102" value="&lt;span style=&quot;font-weight: 400; text-align: center;&quot;&gt;posts_id&lt;/span&gt;" style="shape=partialRectangle;connectable=0;fillColor=none;top=0;left=0;bottom=0;right=0;align=left;spacingLeft=6;fontStyle=5;overflow=hidden;whiteSpace=wrap;html=1;" parent="ju6Y_BsM1qZ0WX_kS476-100" vertex="1">
          <mxGeometry x="30" width="150" height="30" as="geometry">
            <mxRectangle width="150" height="30" as="alternateBounds" />
          </mxGeometry>
        </mxCell>
        <mxCell id="ju6Y_BsM1qZ0WX_kS476-103" value="id" style="ellipse;whiteSpace=wrap;html=1;align=center;fontStyle=4;" parent="1" vertex="1">
          <mxGeometry x="1067.5" y="1601" width="117" height="80" as="geometry" />
        </mxCell>
        <mxCell id="ju6Y_BsM1qZ0WX_kS476-104" value="" style="endArrow=none;html=1;rounded=0;fontSize=12;startSize=8;endSize=8;curved=1;entryX=0.5;entryY=1;entryDx=0;entryDy=0;exitX=0.402;exitY=-0.003;exitDx=0;exitDy=0;exitPerimeter=0;" parent="1" source="ju6Y_BsM1qZ0WX_kS476-7" target="ju6Y_BsM1qZ0WX_kS476-103" edge="1">
          <mxGeometry relative="1" as="geometry">
            <mxPoint x="1121" y="1730" as="sourcePoint" />
            <mxPoint x="1127" y="1437" as="targetPoint" />
          </mxGeometry>
        </mxCell>
        <mxCell id="ju6Y_BsM1qZ0WX_kS476-105" value="&lt;span style=&quot;text-align: left;&quot;&gt;tag&lt;/span&gt;" style="ellipse;whiteSpace=wrap;html=1;" parent="1" vertex="1">
          <mxGeometry x="1064.5" y="1819" width="120" height="80" as="geometry" />
        </mxCell>
        <mxCell id="ju6Y_BsM1qZ0WX_kS476-106" value="" style="endArrow=none;html=1;rounded=0;fontSize=12;startSize=8;endSize=8;curved=1;entryX=0.44;entryY=0.997;entryDx=0;entryDy=0;entryPerimeter=0;" parent="1" source="ju6Y_BsM1qZ0WX_kS476-105" target="ju6Y_BsM1qZ0WX_kS476-7" edge="1">
          <mxGeometry relative="1" as="geometry">
            <mxPoint x="1136" y="1784" as="sourcePoint" />
            <mxPoint x="1125" y="1792" as="targetPoint" />
          </mxGeometry>
        </mxCell>
        <mxCell id="ju6Y_BsM1qZ0WX_kS476-107" value="hashtags" style="shape=table;startSize=30;container=1;collapsible=1;childLayout=tableLayout;fixedRows=1;rowLines=0;fontStyle=1;align=center;resizeLast=1;html=1;" parent="1" vertex="1">
          <mxGeometry x="530" y="2120" width="180" height="90" as="geometry" />
        </mxCell>
        <mxCell id="ju6Y_BsM1qZ0WX_kS476-108" value="" style="shape=tableRow;horizontal=0;startSize=0;swimlaneHead=0;swimlaneBody=0;fillColor=none;collapsible=0;dropTarget=0;points=[[0,0.5],[1,0.5]];portConstraint=eastwest;top=0;left=0;right=0;bottom=1;" parent="ju6Y_BsM1qZ0WX_kS476-107" vertex="1">
          <mxGeometry y="30" width="180" height="30" as="geometry" />
        </mxCell>
        <mxCell id="ju6Y_BsM1qZ0WX_kS476-109" value="PK" style="shape=partialRectangle;connectable=0;fillColor=none;top=0;left=0;bottom=0;right=0;fontStyle=1;overflow=hidden;whiteSpace=wrap;html=1;" parent="ju6Y_BsM1qZ0WX_kS476-108" vertex="1">
          <mxGeometry width="30" height="30" as="geometry">
            <mxRectangle width="30" height="30" as="alternateBounds" />
          </mxGeometry>
        </mxCell>
        <mxCell id="ju6Y_BsM1qZ0WX_kS476-110" value="id" style="shape=partialRectangle;connectable=0;fillColor=none;top=0;left=0;bottom=0;right=0;align=left;spacingLeft=6;fontStyle=5;overflow=hidden;whiteSpace=wrap;html=1;" parent="ju6Y_BsM1qZ0WX_kS476-108" vertex="1">
          <mxGeometry x="30" width="150" height="30" as="geometry">
            <mxRectangle width="150" height="30" as="alternateBounds" />
          </mxGeometry>
        </mxCell>
        <mxCell id="ju6Y_BsM1qZ0WX_kS476-111" value="" style="shape=tableRow;horizontal=0;startSize=0;swimlaneHead=0;swimlaneBody=0;fillColor=none;collapsible=0;dropTarget=0;points=[[0,0.5],[1,0.5]];portConstraint=eastwest;top=0;left=0;right=0;bottom=0;" parent="ju6Y_BsM1qZ0WX_kS476-107" vertex="1">
          <mxGeometry y="60" width="180" height="30" as="geometry" />
        </mxCell>
        <mxCell id="ju6Y_BsM1qZ0WX_kS476-112" value="" style="shape=partialRectangle;connectable=0;fillColor=none;top=0;left=0;bottom=0;right=0;editable=1;overflow=hidden;whiteSpace=wrap;html=1;" parent="ju6Y_BsM1qZ0WX_kS476-111" vertex="1">
          <mxGeometry width="30" height="30" as="geometry">
            <mxRectangle width="30" height="30" as="alternateBounds" />
          </mxGeometry>
        </mxCell>
        <mxCell id="ju6Y_BsM1qZ0WX_kS476-113" value="tag" style="shape=partialRectangle;connectable=0;fillColor=none;top=0;left=0;bottom=0;right=0;align=left;spacingLeft=6;overflow=hidden;whiteSpace=wrap;html=1;" parent="ju6Y_BsM1qZ0WX_kS476-111" vertex="1">
          <mxGeometry x="30" width="150" height="30" as="geometry">
            <mxRectangle width="150" height="30" as="alternateBounds" />
          </mxGeometry>
        </mxCell>
        <mxCell id="ju6Y_BsM1qZ0WX_kS476-114" value="posts_id(FK)" style="ellipse;whiteSpace=wrap;html=1;" parent="1" vertex="1">
          <mxGeometry x="1225" y="2617" width="120" height="80" as="geometry" />
        </mxCell>
        <mxCell id="ju6Y_BsM1qZ0WX_kS476-115" value="" style="endArrow=none;html=1;rounded=0;fontSize=12;startSize=8;endSize=8;curved=1;exitX=1;exitY=0.5;exitDx=0;exitDy=0;" parent="1" source="ju6Y_BsM1qZ0WX_kS476-4" target="ju6Y_BsM1qZ0WX_kS476-114" edge="1">
          <mxGeometry relative="1" as="geometry">
            <mxPoint x="1192.26" y="2643.9999999999995" as="sourcePoint" />
            <mxPoint x="1265.5" y="2663" as="targetPoint" />
          </mxGeometry>
        </mxCell>
        <mxCell id="ju6Y_BsM1qZ0WX_kS476-116" value="id" style="ellipse;whiteSpace=wrap;html=1;align=center;fontStyle=4;" parent="1" vertex="1">
          <mxGeometry x="1053.5" y="2517" width="117" height="80" as="geometry" />
        </mxCell>
        <mxCell id="ju6Y_BsM1qZ0WX_kS476-117" value="" style="endArrow=none;html=1;rounded=0;fontSize=12;startSize=8;endSize=8;curved=1;entryX=0.5;entryY=1;entryDx=0;entryDy=0;exitX=0.5;exitY=0;exitDx=0;exitDy=0;" parent="1" source="ju6Y_BsM1qZ0WX_kS476-4" target="ju6Y_BsM1qZ0WX_kS476-116" edge="1">
          <mxGeometry relative="1" as="geometry">
            <mxPoint x="1126.0199999999998" y="2619.3999999999996" as="sourcePoint" />
            <mxPoint x="1140.5" y="2305" as="targetPoint" />
          </mxGeometry>
        </mxCell>
        <mxCell id="ju6Y_BsM1qZ0WX_kS476-118" value="users_id(FK)" style="ellipse;whiteSpace=wrap;html=1;" parent="1" vertex="1">
          <mxGeometry x="883" y="2620" width="120" height="80" as="geometry" />
        </mxCell>
        <mxCell id="ju6Y_BsM1qZ0WX_kS476-119" value="" style="endArrow=none;html=1;rounded=0;fontSize=12;startSize=8;endSize=8;curved=1;exitX=0.991;exitY=0.444;exitDx=0;exitDy=0;exitPerimeter=0;entryX=0;entryY=0.5;entryDx=0;entryDy=0;" parent="1" source="ju6Y_BsM1qZ0WX_kS476-118" target="ju6Y_BsM1qZ0WX_kS476-4" edge="1">
          <mxGeometry relative="1" as="geometry">
            <mxPoint x="1140.5" y="2412" as="sourcePoint" />
            <mxPoint x="1051" y="2651" as="targetPoint" />
          </mxGeometry>
        </mxCell>
        <mxCell id="ju6Y_BsM1qZ0WX_kS476-120" value="likes" style="shape=table;startSize=30;container=1;collapsible=1;childLayout=tableLayout;fixedRows=1;rowLines=0;fontStyle=1;align=center;resizeLast=1;html=1;" parent="1" vertex="1">
          <mxGeometry x="320" y="2120" width="180" height="120" as="geometry" />
        </mxCell>
        <mxCell id="ju6Y_BsM1qZ0WX_kS476-121" value="" style="shape=tableRow;horizontal=0;startSize=0;swimlaneHead=0;swimlaneBody=0;fillColor=none;collapsible=0;dropTarget=0;points=[[0,0.5],[1,0.5]];portConstraint=eastwest;top=0;left=0;right=0;bottom=1;" parent="ju6Y_BsM1qZ0WX_kS476-120" vertex="1">
          <mxGeometry y="30" width="180" height="30" as="geometry" />
        </mxCell>
        <mxCell id="ju6Y_BsM1qZ0WX_kS476-122" value="PK" style="shape=partialRectangle;connectable=0;fillColor=none;top=0;left=0;bottom=0;right=0;fontStyle=1;overflow=hidden;whiteSpace=wrap;html=1;" parent="ju6Y_BsM1qZ0WX_kS476-121" vertex="1">
          <mxGeometry width="30" height="30" as="geometry">
            <mxRectangle width="30" height="30" as="alternateBounds" />
          </mxGeometry>
        </mxCell>
        <mxCell id="ju6Y_BsM1qZ0WX_kS476-123" value="id" style="shape=partialRectangle;connectable=0;fillColor=none;top=0;left=0;bottom=0;right=0;align=left;spacingLeft=6;fontStyle=5;overflow=hidden;whiteSpace=wrap;html=1;" parent="ju6Y_BsM1qZ0WX_kS476-121" vertex="1">
          <mxGeometry x="30" width="150" height="30" as="geometry">
            <mxRectangle width="150" height="30" as="alternateBounds" />
          </mxGeometry>
        </mxCell>
        <mxCell id="ju6Y_BsM1qZ0WX_kS476-124" value="" style="shape=tableRow;horizontal=0;startSize=0;swimlaneHead=0;swimlaneBody=0;fillColor=none;collapsible=0;dropTarget=0;points=[[0,0.5],[1,0.5]];portConstraint=eastwest;top=0;left=0;right=0;bottom=1;" parent="ju6Y_BsM1qZ0WX_kS476-120" vertex="1">
          <mxGeometry y="60" width="180" height="30" as="geometry" />
        </mxCell>
        <mxCell id="ju6Y_BsM1qZ0WX_kS476-125" value="FK" style="shape=partialRectangle;connectable=0;fillColor=none;top=0;left=0;bottom=0;right=0;fontStyle=1;overflow=hidden;whiteSpace=wrap;html=1;" parent="ju6Y_BsM1qZ0WX_kS476-124" vertex="1">
          <mxGeometry width="30" height="30" as="geometry">
            <mxRectangle width="30" height="30" as="alternateBounds" />
          </mxGeometry>
        </mxCell>
        <mxCell id="ju6Y_BsM1qZ0WX_kS476-126" value="&lt;span style=&quot;font-weight: 400; text-align: center;&quot;&gt;users_id&lt;/span&gt;" style="shape=partialRectangle;connectable=0;fillColor=none;top=0;left=0;bottom=0;right=0;align=left;spacingLeft=6;fontStyle=5;overflow=hidden;whiteSpace=wrap;html=1;" parent="ju6Y_BsM1qZ0WX_kS476-124" vertex="1">
          <mxGeometry x="30" width="150" height="30" as="geometry">
            <mxRectangle width="150" height="30" as="alternateBounds" />
          </mxGeometry>
        </mxCell>
        <mxCell id="ju6Y_BsM1qZ0WX_kS476-127" value="" style="shape=tableRow;horizontal=0;startSize=0;swimlaneHead=0;swimlaneBody=0;fillColor=none;collapsible=0;dropTarget=0;points=[[0,0.5],[1,0.5]];portConstraint=eastwest;top=0;left=0;right=0;bottom=1;" parent="ju6Y_BsM1qZ0WX_kS476-120" vertex="1">
          <mxGeometry y="90" width="180" height="30" as="geometry" />
        </mxCell>
        <mxCell id="ju6Y_BsM1qZ0WX_kS476-128" value="FK" style="shape=partialRectangle;connectable=0;fillColor=none;top=0;left=0;bottom=0;right=0;fontStyle=1;overflow=hidden;whiteSpace=wrap;html=1;" parent="ju6Y_BsM1qZ0WX_kS476-127" vertex="1">
          <mxGeometry width="30" height="30" as="geometry">
            <mxRectangle width="30" height="30" as="alternateBounds" />
          </mxGeometry>
        </mxCell>
        <mxCell id="ju6Y_BsM1qZ0WX_kS476-129" value="&lt;span style=&quot;font-weight: 400; text-align: center;&quot;&gt;posts_id&lt;/span&gt;" style="shape=partialRectangle;connectable=0;fillColor=none;top=0;left=0;bottom=0;right=0;align=left;spacingLeft=6;fontStyle=5;overflow=hidden;whiteSpace=wrap;html=1;" parent="ju6Y_BsM1qZ0WX_kS476-127" vertex="1">
          <mxGeometry x="30" width="150" height="30" as="geometry">
            <mxRectangle width="150" height="30" as="alternateBounds" />
          </mxGeometry>
        </mxCell>
        <mxCell id="ju6Y_BsM1qZ0WX_kS476-130" value="posts_id(FK)" style="ellipse;whiteSpace=wrap;html=1;" parent="1" vertex="1">
          <mxGeometry x="1225" y="2308" width="120" height="80" as="geometry" />
        </mxCell>
        <mxCell id="ju6Y_BsM1qZ0WX_kS476-131" value="" style="endArrow=none;html=1;rounded=0;fontSize=12;startSize=8;endSize=8;curved=1;exitX=1;exitY=0.517;exitDx=0;exitDy=0;exitPerimeter=0;entryX=0;entryY=0.5;entryDx=0;entryDy=0;" parent="1" source="ju6Y_BsM1qZ0WX_kS476-5" target="ju6Y_BsM1qZ0WX_kS476-130" edge="1">
          <mxGeometry relative="1" as="geometry">
            <mxPoint x="1170" y="2352" as="sourcePoint" />
            <mxPoint x="1223" y="2345" as="targetPoint" />
          </mxGeometry>
        </mxCell>
        <mxCell id="ju6Y_BsM1qZ0WX_kS476-132" value="id" style="ellipse;whiteSpace=wrap;html=1;align=center;fontStyle=4;" parent="1" vertex="1">
          <mxGeometry x="1043" y="2178" width="117" height="80" as="geometry" />
        </mxCell>
        <mxCell id="ju6Y_BsM1qZ0WX_kS476-133" value="" style="endArrow=none;html=1;rounded=0;fontSize=12;startSize=8;endSize=8;curved=1;entryX=0.5;entryY=1;entryDx=0;entryDy=0;exitX=0.464;exitY=0.004;exitDx=0;exitDy=0;exitPerimeter=0;" parent="1" source="ju6Y_BsM1qZ0WX_kS476-5" target="ju6Y_BsM1qZ0WX_kS476-132" edge="1">
          <mxGeometry relative="1" as="geometry">
            <mxPoint x="1112" y="2318" as="sourcePoint" />
            <mxPoint x="1130" y="2025" as="targetPoint" />
          </mxGeometry>
        </mxCell>
        <mxCell id="ju6Y_BsM1qZ0WX_kS476-134" value="users_id(FK)" style="ellipse;whiteSpace=wrap;html=1;" parent="1" vertex="1">
          <mxGeometry x="883" y="2314" width="120" height="80" as="geometry" />
        </mxCell>
        <mxCell id="ju6Y_BsM1qZ0WX_kS476-135" value="" style="endArrow=none;html=1;rounded=0;fontSize=12;startSize=8;endSize=8;curved=1;exitX=0.991;exitY=0.444;exitDx=0;exitDy=0;exitPerimeter=0;entryX=0;entryY=0.5;entryDx=0;entryDy=0;" parent="1" source="ju6Y_BsM1qZ0WX_kS476-134" target="ju6Y_BsM1qZ0WX_kS476-5" edge="1">
          <mxGeometry relative="1" as="geometry">
            <mxPoint x="1130" y="2132" as="sourcePoint" />
            <mxPoint x="1056" y="2350" as="targetPoint" />
          </mxGeometry>
        </mxCell>
        <mxCell id="ju6Y_BsM1qZ0WX_kS476-136" value="reports" style="shape=table;startSize=30;container=1;collapsible=1;childLayout=tableLayout;fixedRows=1;rowLines=0;fontStyle=1;align=center;resizeLast=1;html=1;" parent="1" vertex="1">
          <mxGeometry x="110" y="1920" width="180" height="150" as="geometry" />
        </mxCell>
        <mxCell id="ju6Y_BsM1qZ0WX_kS476-137" value="" style="shape=tableRow;horizontal=0;startSize=0;swimlaneHead=0;swimlaneBody=0;fillColor=none;collapsible=0;dropTarget=0;points=[[0,0.5],[1,0.5]];portConstraint=eastwest;top=0;left=0;right=0;bottom=1;" parent="ju6Y_BsM1qZ0WX_kS476-136" vertex="1">
          <mxGeometry y="30" width="180" height="30" as="geometry" />
        </mxCell>
        <mxCell id="ju6Y_BsM1qZ0WX_kS476-138" value="PK" style="shape=partialRectangle;connectable=0;fillColor=none;top=0;left=0;bottom=0;right=0;fontStyle=1;overflow=hidden;whiteSpace=wrap;html=1;" parent="ju6Y_BsM1qZ0WX_kS476-137" vertex="1">
          <mxGeometry width="30" height="30" as="geometry">
            <mxRectangle width="30" height="30" as="alternateBounds" />
          </mxGeometry>
        </mxCell>
        <mxCell id="ju6Y_BsM1qZ0WX_kS476-139" value="id" style="shape=partialRectangle;connectable=0;fillColor=none;top=0;left=0;bottom=0;right=0;align=left;spacingLeft=6;fontStyle=5;overflow=hidden;whiteSpace=wrap;html=1;" parent="ju6Y_BsM1qZ0WX_kS476-137" vertex="1">
          <mxGeometry x="30" width="150" height="30" as="geometry">
            <mxRectangle width="150" height="30" as="alternateBounds" />
          </mxGeometry>
        </mxCell>
        <mxCell id="ju6Y_BsM1qZ0WX_kS476-140" value="" style="shape=tableRow;horizontal=0;startSize=0;swimlaneHead=0;swimlaneBody=0;fillColor=none;collapsible=0;dropTarget=0;points=[[0,0.5],[1,0.5]];portConstraint=eastwest;top=0;left=0;right=0;bottom=1;" parent="ju6Y_BsM1qZ0WX_kS476-136" vertex="1">
          <mxGeometry y="60" width="180" height="30" as="geometry" />
        </mxCell>
        <mxCell id="ju6Y_BsM1qZ0WX_kS476-141" value="FK" style="shape=partialRectangle;connectable=0;fillColor=none;top=0;left=0;bottom=0;right=0;fontStyle=1;overflow=hidden;whiteSpace=wrap;html=1;" parent="ju6Y_BsM1qZ0WX_kS476-140" vertex="1">
          <mxGeometry width="30" height="30" as="geometry">
            <mxRectangle width="30" height="30" as="alternateBounds" />
          </mxGeometry>
        </mxCell>
        <mxCell id="ju6Y_BsM1qZ0WX_kS476-142" value="&lt;span style=&quot;font-weight: 400; text-align: center;&quot;&gt;users_id&lt;/span&gt;" style="shape=partialRectangle;connectable=0;fillColor=none;top=0;left=0;bottom=0;right=0;align=left;spacingLeft=6;fontStyle=5;overflow=hidden;whiteSpace=wrap;html=1;" parent="ju6Y_BsM1qZ0WX_kS476-140" vertex="1">
          <mxGeometry x="30" width="150" height="30" as="geometry">
            <mxRectangle width="150" height="30" as="alternateBounds" />
          </mxGeometry>
        </mxCell>
        <mxCell id="ju6Y_BsM1qZ0WX_kS476-143" value="" style="shape=tableRow;horizontal=0;startSize=0;swimlaneHead=0;swimlaneBody=0;fillColor=none;collapsible=0;dropTarget=0;points=[[0,0.5],[1,0.5]];portConstraint=eastwest;top=0;left=0;right=0;bottom=1;" parent="ju6Y_BsM1qZ0WX_kS476-136" vertex="1">
          <mxGeometry y="90" width="180" height="30" as="geometry" />
        </mxCell>
        <mxCell id="ju6Y_BsM1qZ0WX_kS476-144" value="FK" style="shape=partialRectangle;connectable=0;fillColor=none;top=0;left=0;bottom=0;right=0;fontStyle=1;overflow=hidden;whiteSpace=wrap;html=1;" parent="ju6Y_BsM1qZ0WX_kS476-143" vertex="1">
          <mxGeometry width="30" height="30" as="geometry">
            <mxRectangle width="30" height="30" as="alternateBounds" />
          </mxGeometry>
        </mxCell>
        <mxCell id="ju6Y_BsM1qZ0WX_kS476-145" value="&lt;span style=&quot;font-weight: 400; text-align: center;&quot;&gt;posts_id&lt;/span&gt;" style="shape=partialRectangle;connectable=0;fillColor=none;top=0;left=0;bottom=0;right=0;align=left;spacingLeft=6;fontStyle=5;overflow=hidden;whiteSpace=wrap;html=1;" parent="ju6Y_BsM1qZ0WX_kS476-143" vertex="1">
          <mxGeometry x="30" width="150" height="30" as="geometry">
            <mxRectangle width="150" height="30" as="alternateBounds" />
          </mxGeometry>
        </mxCell>
        <mxCell id="ju6Y_BsM1qZ0WX_kS476-146" value="" style="shape=tableRow;horizontal=0;startSize=0;swimlaneHead=0;swimlaneBody=0;fillColor=none;collapsible=0;dropTarget=0;points=[[0,0.5],[1,0.5]];portConstraint=eastwest;top=0;left=0;right=0;bottom=0;" parent="ju6Y_BsM1qZ0WX_kS476-136" vertex="1">
          <mxGeometry y="120" width="180" height="30" as="geometry" />
        </mxCell>
        <mxCell id="ju6Y_BsM1qZ0WX_kS476-147" value="" style="shape=partialRectangle;connectable=0;fillColor=none;top=0;left=0;bottom=0;right=0;editable=1;overflow=hidden;whiteSpace=wrap;html=1;" parent="ju6Y_BsM1qZ0WX_kS476-146" vertex="1">
          <mxGeometry width="30" height="30" as="geometry">
            <mxRectangle width="30" height="30" as="alternateBounds" />
          </mxGeometry>
        </mxCell>
        <mxCell id="ju6Y_BsM1qZ0WX_kS476-148" value="content" style="shape=partialRectangle;connectable=0;fillColor=none;top=0;left=0;bottom=0;right=0;align=left;spacingLeft=6;overflow=hidden;whiteSpace=wrap;html=1;" parent="ju6Y_BsM1qZ0WX_kS476-146" vertex="1">
          <mxGeometry x="30" width="150" height="30" as="geometry">
            <mxRectangle width="150" height="30" as="alternateBounds" />
          </mxGeometry>
        </mxCell>
        <mxCell id="ju6Y_BsM1qZ0WX_kS476-149" value="&lt;span style=&quot;text-align: left;&quot;&gt;content&lt;/span&gt;" style="ellipse;whiteSpace=wrap;html=1;" parent="1" vertex="1">
          <mxGeometry x="1044" y="2400" width="120" height="80" as="geometry" />
        </mxCell>
        <mxCell id="ju6Y_BsM1qZ0WX_kS476-150" value="" style="endArrow=none;html=1;rounded=0;fontSize=12;startSize=8;endSize=8;curved=1;exitX=0.5;exitY=1;exitDx=0;exitDy=0;entryX=0.383;entryY=-0.002;entryDx=0;entryDy=0;entryPerimeter=0;" parent="1" source="ju6Y_BsM1qZ0WX_kS476-5" target="ju6Y_BsM1qZ0WX_kS476-149" edge="1">
          <mxGeometry relative="1" as="geometry">
            <mxPoint x="1178" y="2355" as="sourcePoint" />
            <mxPoint x="1235" y="2357" as="targetPoint" />
          </mxGeometry>
        </mxCell>
        <mxCell id="ju6Y_BsM1qZ0WX_kS476-151" value="&lt;span style=&quot;font-weight: 400; text-wrap-mode: wrap;&quot;&gt;followers&lt;/span&gt;" style="shape=table;startSize=30;container=1;collapsible=1;childLayout=tableLayout;fixedRows=1;rowLines=0;fontStyle=1;align=center;resizeLast=1;html=1;" parent="1" vertex="1">
          <mxGeometry x="320" y="1920" width="180" height="120" as="geometry" />
        </mxCell>
        <mxCell id="ju6Y_BsM1qZ0WX_kS476-152" value="" style="shape=tableRow;horizontal=0;startSize=0;swimlaneHead=0;swimlaneBody=0;fillColor=none;collapsible=0;dropTarget=0;points=[[0,0.5],[1,0.5]];portConstraint=eastwest;top=0;left=0;right=0;bottom=1;" parent="ju6Y_BsM1qZ0WX_kS476-151" vertex="1">
          <mxGeometry y="30" width="180" height="30" as="geometry" />
        </mxCell>
        <mxCell id="ju6Y_BsM1qZ0WX_kS476-153" value="PK" style="shape=partialRectangle;connectable=0;fillColor=none;top=0;left=0;bottom=0;right=0;fontStyle=1;overflow=hidden;whiteSpace=wrap;html=1;" parent="ju6Y_BsM1qZ0WX_kS476-152" vertex="1">
          <mxGeometry width="30" height="30" as="geometry">
            <mxRectangle width="30" height="30" as="alternateBounds" />
          </mxGeometry>
        </mxCell>
        <mxCell id="ju6Y_BsM1qZ0WX_kS476-154" value="id" style="shape=partialRectangle;connectable=0;fillColor=none;top=0;left=0;bottom=0;right=0;align=left;spacingLeft=6;fontStyle=5;overflow=hidden;whiteSpace=wrap;html=1;" parent="ju6Y_BsM1qZ0WX_kS476-152" vertex="1">
          <mxGeometry x="30" width="150" height="30" as="geometry">
            <mxRectangle width="150" height="30" as="alternateBounds" />
          </mxGeometry>
        </mxCell>
        <mxCell id="ju6Y_BsM1qZ0WX_kS476-155" value="" style="shape=tableRow;horizontal=0;startSize=0;swimlaneHead=0;swimlaneBody=0;fillColor=none;collapsible=0;dropTarget=0;points=[[0,0.5],[1,0.5]];portConstraint=eastwest;top=0;left=0;right=0;bottom=1;" parent="ju6Y_BsM1qZ0WX_kS476-151" vertex="1">
          <mxGeometry y="60" width="180" height="30" as="geometry" />
        </mxCell>
        <mxCell id="ju6Y_BsM1qZ0WX_kS476-156" value="FK" style="shape=partialRectangle;connectable=0;fillColor=none;top=0;left=0;bottom=0;right=0;fontStyle=1;overflow=hidden;whiteSpace=wrap;html=1;" parent="ju6Y_BsM1qZ0WX_kS476-155" vertex="1">
          <mxGeometry width="30" height="30" as="geometry">
            <mxRectangle width="30" height="30" as="alternateBounds" />
          </mxGeometry>
        </mxCell>
        <mxCell id="ju6Y_BsM1qZ0WX_kS476-157" value="&lt;span style=&quot;font-weight: 400; text-align: center;&quot;&gt;users_id&lt;/span&gt;" style="shape=partialRectangle;connectable=0;fillColor=none;top=0;left=0;bottom=0;right=0;align=left;spacingLeft=6;fontStyle=5;overflow=hidden;whiteSpace=wrap;html=1;" parent="ju6Y_BsM1qZ0WX_kS476-155" vertex="1">
          <mxGeometry x="30" width="150" height="30" as="geometry">
            <mxRectangle width="150" height="30" as="alternateBounds" />
          </mxGeometry>
        </mxCell>
        <mxCell id="ju6Y_BsM1qZ0WX_kS476-158" value="" style="shape=tableRow;horizontal=0;startSize=0;swimlaneHead=0;swimlaneBody=0;fillColor=none;collapsible=0;dropTarget=0;points=[[0,0.5],[1,0.5]];portConstraint=eastwest;top=0;left=0;right=0;bottom=1;" parent="ju6Y_BsM1qZ0WX_kS476-151" vertex="1">
          <mxGeometry y="90" width="180" height="30" as="geometry" />
        </mxCell>
        <mxCell id="ju6Y_BsM1qZ0WX_kS476-159" value="FK" style="shape=partialRectangle;connectable=0;fillColor=none;top=0;left=0;bottom=0;right=0;fontStyle=1;overflow=hidden;whiteSpace=wrap;html=1;" parent="ju6Y_BsM1qZ0WX_kS476-158" vertex="1">
          <mxGeometry width="30" height="30" as="geometry">
            <mxRectangle width="30" height="30" as="alternateBounds" />
          </mxGeometry>
        </mxCell>
        <mxCell id="ju6Y_BsM1qZ0WX_kS476-160" value="&lt;span style=&quot;font-weight: 400; text-align: center;&quot;&gt;posts_id&lt;/span&gt;" style="shape=partialRectangle;connectable=0;fillColor=none;top=0;left=0;bottom=0;right=0;align=left;spacingLeft=6;fontStyle=5;overflow=hidden;whiteSpace=wrap;html=1;" parent="ju6Y_BsM1qZ0WX_kS476-158" vertex="1">
          <mxGeometry x="30" width="150" height="30" as="geometry">
            <mxRectangle width="150" height="30" as="alternateBounds" />
          </mxGeometry>
        </mxCell>
        <mxCell id="ju6Y_BsM1qZ0WX_kS476-161" value="posts_id(FK)" style="ellipse;whiteSpace=wrap;html=1;" parent="1" vertex="1">
          <mxGeometry x="1255" y="2015" width="120" height="80" as="geometry" />
        </mxCell>
        <mxCell id="ju6Y_BsM1qZ0WX_kS476-162" value="id" style="ellipse;whiteSpace=wrap;html=1;align=center;fontStyle=4;" parent="1" vertex="1">
          <mxGeometry x="1095.5" y="1918" width="117" height="80" as="geometry" />
        </mxCell>
        <mxCell id="ju6Y_BsM1qZ0WX_kS476-163" value="users_id(FK)" style="ellipse;whiteSpace=wrap;html=1;" parent="1" vertex="1">
          <mxGeometry x="904.5" y="2023" width="120" height="80" as="geometry" />
        </mxCell>
        <mxCell id="ju6Y_BsM1qZ0WX_kS476-164" value="" style="endArrow=none;html=1;rounded=0;fontSize=12;startSize=8;endSize=8;curved=1;exitX=0.991;exitY=0.444;exitDx=0;exitDy=0;exitPerimeter=0;entryX=0;entryY=0.5;entryDx=0;entryDy=0;" parent="1" source="ju6Y_BsM1qZ0WX_kS476-163" target="ju6Y_BsM1qZ0WX_kS476-6" edge="1">
          <mxGeometry relative="1" as="geometry">
            <mxPoint x="1160" y="1839" as="sourcePoint" />
            <mxPoint x="1071.5" y="2084" as="targetPoint" />
          </mxGeometry>
        </mxCell>
        <mxCell id="ju6Y_BsM1qZ0WX_kS476-165" value="" style="endArrow=none;html=1;rounded=0;fontSize=12;startSize=8;endSize=8;curved=1;entryX=0.5;entryY=1;entryDx=0;entryDy=0;exitX=0.446;exitY=0;exitDx=0;exitDy=0;exitPerimeter=0;" parent="1" source="ju6Y_BsM1qZ0WX_kS476-6" target="ju6Y_BsM1qZ0WX_kS476-162" edge="1">
          <mxGeometry relative="1" as="geometry">
            <mxPoint x="1125" y="2057" as="sourcePoint" />
            <mxPoint x="1160" y="1732" as="targetPoint" />
          </mxGeometry>
        </mxCell>
        <mxCell id="ju6Y_BsM1qZ0WX_kS476-166" value="" style="endArrow=none;html=1;rounded=0;fontSize=12;startSize=8;endSize=8;curved=1;exitX=1;exitY=0.5;exitDx=0;exitDy=0;" parent="1" source="ju6Y_BsM1qZ0WX_kS476-6" target="ju6Y_BsM1qZ0WX_kS476-161" edge="1">
          <mxGeometry relative="1" as="geometry">
            <mxPoint x="1191.5" y="2084" as="sourcePoint" />
            <mxPoint x="1285" y="2090" as="targetPoint" />
          </mxGeometry>
        </mxCell>
        <mxCell id="ju6Y_BsM1qZ0WX_kS476-167" value="posts_hashtags" style="rounded=0;whiteSpace=wrap;html=1;" parent="1" vertex="1">
          <mxGeometry x="1053.5" y="2812" width="120" height="60" as="geometry" />
        </mxCell>
        <mxCell id="ju6Y_BsM1qZ0WX_kS476-168" value="" style="endArrow=none;html=1;rounded=0;fontSize=12;startSize=8;endSize=8;curved=1;exitX=0.991;exitY=0.444;exitDx=0;exitDy=0;exitPerimeter=0;entryX=0;entryY=0.5;entryDx=0;entryDy=0;" parent="1" source="ju6Y_BsM1qZ0WX_kS476-172" edge="1">
          <mxGeometry relative="1" as="geometry">
            <mxPoint x="1140.5" y="2597" as="sourcePoint" />
            <mxPoint x="1052" y="2842" as="targetPoint" />
          </mxGeometry>
        </mxCell>
        <mxCell id="ju6Y_BsM1qZ0WX_kS476-169" value="" style="endArrow=none;html=1;rounded=0;fontSize=12;startSize=8;endSize=8;curved=1;entryX=0.5;entryY=1;entryDx=0;entryDy=0;exitX=0.5;exitY=0;exitDx=0;exitDy=0;" parent="1" target="ju6Y_BsM1qZ0WX_kS476-171" edge="1">
          <mxGeometry relative="1" as="geometry">
            <mxPoint x="1112" y="2812" as="sourcePoint" />
            <mxPoint x="1140.5" y="2490" as="targetPoint" />
          </mxGeometry>
        </mxCell>
        <mxCell id="ju6Y_BsM1qZ0WX_kS476-170" value="" style="endArrow=none;html=1;rounded=0;fontSize=12;startSize=8;endSize=8;curved=1;exitX=1;exitY=0.5;exitDx=0;exitDy=0;" parent="1" target="ju6Y_BsM1qZ0WX_kS476-173" edge="1">
          <mxGeometry relative="1" as="geometry">
            <mxPoint x="1172" y="2842" as="sourcePoint" />
            <mxPoint x="1265.5" y="2848" as="targetPoint" />
          </mxGeometry>
        </mxCell>
        <mxCell id="ju6Y_BsM1qZ0WX_kS476-171" value="id" style="ellipse;whiteSpace=wrap;html=1;align=center;fontStyle=4;" parent="1" vertex="1">
          <mxGeometry x="1053.5" y="2702" width="117" height="80" as="geometry" />
        </mxCell>
        <mxCell id="ju6Y_BsM1qZ0WX_kS476-172" value="users_id(FK)" style="ellipse;whiteSpace=wrap;html=1;" parent="1" vertex="1">
          <mxGeometry x="883" y="2805" width="120" height="80" as="geometry" />
        </mxCell>
        <mxCell id="ju6Y_BsM1qZ0WX_kS476-173" value="hashtags_id(FK)" style="ellipse;whiteSpace=wrap;html=1;" parent="1" vertex="1">
          <mxGeometry x="1225" y="2802" width="120" height="80" as="geometry" />
        </mxCell>
        <mxCell id="ju6Y_BsM1qZ0WX_kS476-174" value="&lt;span style=&quot;font-weight: 400; text-wrap-mode: wrap;&quot;&gt;posts_hashtags&lt;/span&gt;" style="shape=table;startSize=30;container=1;collapsible=1;childLayout=tableLayout;fixedRows=1;rowLines=0;fontStyle=1;align=center;resizeLast=1;html=1;" parent="1" vertex="1">
          <mxGeometry x="110" y="2118" width="180" height="120" as="geometry" />
        </mxCell>
        <mxCell id="ju6Y_BsM1qZ0WX_kS476-175" value="" style="shape=tableRow;horizontal=0;startSize=0;swimlaneHead=0;swimlaneBody=0;fillColor=none;collapsible=0;dropTarget=0;points=[[0,0.5],[1,0.5]];portConstraint=eastwest;top=0;left=0;right=0;bottom=1;" parent="ju6Y_BsM1qZ0WX_kS476-174" vertex="1">
          <mxGeometry y="30" width="180" height="30" as="geometry" />
        </mxCell>
        <mxCell id="ju6Y_BsM1qZ0WX_kS476-176" value="PK" style="shape=partialRectangle;connectable=0;fillColor=none;top=0;left=0;bottom=0;right=0;fontStyle=1;overflow=hidden;whiteSpace=wrap;html=1;" parent="ju6Y_BsM1qZ0WX_kS476-175" vertex="1">
          <mxGeometry width="30" height="30" as="geometry">
            <mxRectangle width="30" height="30" as="alternateBounds" />
          </mxGeometry>
        </mxCell>
        <mxCell id="ju6Y_BsM1qZ0WX_kS476-177" value="id" style="shape=partialRectangle;connectable=0;fillColor=none;top=0;left=0;bottom=0;right=0;align=left;spacingLeft=6;fontStyle=5;overflow=hidden;whiteSpace=wrap;html=1;" parent="ju6Y_BsM1qZ0WX_kS476-175" vertex="1">
          <mxGeometry x="30" width="150" height="30" as="geometry">
            <mxRectangle width="150" height="30" as="alternateBounds" />
          </mxGeometry>
        </mxCell>
        <mxCell id="ju6Y_BsM1qZ0WX_kS476-178" value="" style="shape=tableRow;horizontal=0;startSize=0;swimlaneHead=0;swimlaneBody=0;fillColor=none;collapsible=0;dropTarget=0;points=[[0,0.5],[1,0.5]];portConstraint=eastwest;top=0;left=0;right=0;bottom=1;" parent="ju6Y_BsM1qZ0WX_kS476-174" vertex="1">
          <mxGeometry y="60" width="180" height="30" as="geometry" />
        </mxCell>
        <mxCell id="ju6Y_BsM1qZ0WX_kS476-179" value="FK" style="shape=partialRectangle;connectable=0;fillColor=none;top=0;left=0;bottom=0;right=0;fontStyle=1;overflow=hidden;whiteSpace=wrap;html=1;" parent="ju6Y_BsM1qZ0WX_kS476-178" vertex="1">
          <mxGeometry width="30" height="30" as="geometry">
            <mxRectangle width="30" height="30" as="alternateBounds" />
          </mxGeometry>
        </mxCell>
        <mxCell id="ju6Y_BsM1qZ0WX_kS476-180" value="&lt;span style=&quot;font-weight: 400; text-align: center;&quot;&gt;users_id&lt;/span&gt;" style="shape=partialRectangle;connectable=0;fillColor=none;top=0;left=0;bottom=0;right=0;align=left;spacingLeft=6;fontStyle=5;overflow=hidden;whiteSpace=wrap;html=1;" parent="ju6Y_BsM1qZ0WX_kS476-178" vertex="1">
          <mxGeometry x="30" width="150" height="30" as="geometry">
            <mxRectangle width="150" height="30" as="alternateBounds" />
          </mxGeometry>
        </mxCell>
        <mxCell id="ju6Y_BsM1qZ0WX_kS476-181" value="" style="shape=tableRow;horizontal=0;startSize=0;swimlaneHead=0;swimlaneBody=0;fillColor=none;collapsible=0;dropTarget=0;points=[[0,0.5],[1,0.5]];portConstraint=eastwest;top=0;left=0;right=0;bottom=1;" parent="ju6Y_BsM1qZ0WX_kS476-174" vertex="1">
          <mxGeometry y="90" width="180" height="30" as="geometry" />
        </mxCell>
        <mxCell id="ju6Y_BsM1qZ0WX_kS476-182" value="FK" style="shape=partialRectangle;connectable=0;fillColor=none;top=0;left=0;bottom=0;right=0;fontStyle=1;overflow=hidden;whiteSpace=wrap;html=1;" parent="ju6Y_BsM1qZ0WX_kS476-181" vertex="1">
          <mxGeometry width="30" height="30" as="geometry">
            <mxRectangle width="30" height="30" as="alternateBounds" />
          </mxGeometry>
        </mxCell>
        <mxCell id="ju6Y_BsM1qZ0WX_kS476-183" value="&lt;span style=&quot;font-weight: 400; text-align: center;&quot;&gt;hashtags_id&lt;/span&gt;" style="shape=partialRectangle;connectable=0;fillColor=none;top=0;left=0;bottom=0;right=0;align=left;spacingLeft=6;fontStyle=5;overflow=hidden;whiteSpace=wrap;html=1;" parent="ju6Y_BsM1qZ0WX_kS476-181" vertex="1">
          <mxGeometry x="30" width="150" height="30" as="geometry">
            <mxRectangle width="150" height="30" as="alternateBounds" />
          </mxGeometry>
        </mxCell>
      </root>
    </mxGraphModel>
  </diagram>
</mxfile>
